<?xml version="1.0" encoding="utf-8"?>
<!-- Generator: Adobe Illustrator 18.0.0, SVG Export Plug-In . SVG Version: 6.00 Build 0)  -->
<!DOCTYPE svg PUBLIC "-//W3C//DTD SVG 1.1//EN" "http://www.w3.org/Graphics/SVG/1.1/DTD/svg11.dtd">
<svg version="1.1" id="Слой_2" xmlns="http://www.w3.org/2000/svg" xmlns:xlink="http://www.w3.org/1999/xlink" x="0px" y="0px"
	 viewBox="0 368 1590 480.3" enable-background="new 0 368 1590 480.3" xml:space="preserve">
<path fill="none" stroke="#1D1D1B" stroke-width="2" stroke-miterlimit="10" d="M650.8,504.2c-4.1-4.9,8-5.6,10.1-6.8
	c-2.1-17.2,18.3-25.6,31.8-20.5c-4.4-6.1-5.8-12.9-1.1-19.7c4.9-7.2,12.7-8.5,19.5-4.4c-11.8-46,55.9-44,62.8-19.9
	c0.4-19.7,34.7-27.8,49.6-25.8c19.7,2.8,37,21.1,31.1,40.9c13.5-6.9,20.5,13.1,14,22.4c3.3,1.5,10.7,7.3,11,11.1
	c13.5-4,24-5.4,34.3,6.6l8.3,1.9c5-4.5,17-0.4,21.6,4.4c5.6-18.3,17.8-16.6,24.2-17.4c10.5-1.3,10.1,19.6,3.7,24.5
	c-5.6,4.2-9.5,11.1-16.6,12.9c10.1,2,28.6,0,28.6,0s93.3-55.1,102.6,29.9c0.9,28-20.4,25-37.1,26.2c-1.3,8.1-8.5,10.6-14.7,13.9
	c16.8-0.4,19.2,16.2,20.4,29.7c4-0.4,47.3-28.4,48.2,13.4c11.9-2.1,18.2-5.8,27.4,3.4c7.6,7.6,13,21.6,0.1,26.4
	c8.6-2.3,7.9,7.7,2.3,11c-6.6,3.8-9.8,4-8.9,13.2c3.7-2,5.2-6.1,9.4-8.1c5.2-2.5,10.7-2.9,13.1,3.3c3,8-5.8,9.4-15.1,15.9
	c4.8,0.7,8.9-1.7,13.6,0.4c4,1.9,7,5.4,6.8,10.1c-0.5,9.1-15.9,11.9-23.2,11.4c4.9,7.7-9.8,21.1-15.9,24.4c3.8,2.8,15.4-2.8,20.4-3
	c7.8-0.5,11,3.2,16.2,8.2c3.3-1.3,7.3-1.5,10.6-2.7c-10.2-8-1.3-17.9,8.6-17.9c8.1-26.9,34.6-4,23.6,7.6c6.9,1.3,2.8,15.2,1.9,19.6
	c1.7-0.5,4.2-1.2,6.4-1.1c-4.1-3.7-0.9-9.8,1.2-13.6c1.9,0,2.7-1.1,4.4-1.2c1.1-23.2,31.9-11.5,22,2.1c3.3,0.1,6.5,3.3,8.9,5.4
	c0.1-4,4.6-7.7,7.8-6.6c3.4,1.1,6.1,7.2,6.5,10.3c0.5,0.4,1.1,0.4,1.6,0c0.5-5.2,0.8-11.5,7.6-12.1c5.7-0.4,9.7,6.6,9.3,11.8
	c4.4-3,7.9-9.4,14-10.9c6.1-1.5,17.8,0.9,18.8,8.3c8.3,0.8,13.5,0.9,19.5,7.3c0.8-3.4,3.2-8.1,7.4-8.2c-5.4-8.6,7-10.6,12.2-11
	c6.6-0.5,12.1,1.1,15,7.4l2.8-0.9c-1.3-8.1,6.5-6.9,9.4-2.3c-0.9-8.5,13.5-3.4,16,1.1c3.8-3.2,10.5-5.3,15.6-4.5
	c7.2,1.1,8.1,4.2,9.3,10.9c7.2-10.2,19.2-0.1,25.3,5.6c9.3-7.9,18.4-1.1,27,2.8c6.4-6,18.6-3.3,26.1-0.3c7.2,2.8,14.7,11,22.4,11
	c0,0,60.3-0.8,67.2,0.9c11.5,2.9,0.4,7.6-5.6,9.5c-14.8,4.9-89,3-92.4,3.7c6.6,11.7-6.9,14-14.8,15c-5,11.8-19.5,12.1-31,11.9
	c-7.3,0-7.3,2.3-12.9,4.9c-17.1,8.2-306.2,4.6-313.9,4.4c-4.1-0.1-5.3-0.5-9.4,0.7c-2.8,0.8-4.5,4.1-6.8-0.5
	c-3.8,3.2-7.4,7.4-11.8,10.2c-6.2,3.8-11.3,1.6-16.6,2.1c-6.5,0.7-11.8,3-18.9,2.4c-7.8-0.8-12.1-8.9-12.3-8.3
	c-6,2.6-16.7,1.6-22.3-0.8c-7-2.9-9-12.1-16.2-4c-4.9,5.7-6.9,9.1-14.7,10.7c-6.8,1.3-13.4,0.3-19.3-2.9c-2.1,7-11.1,4.2-16.8,4.6
	c-0.3,3.6,0,7.3-0.3,10.9c-8.2,2-16.8,4.8-25,2c-3-1.1-4.5-3.6-7.4-4.8c-3.7-1.5-8.6,1.2-12.1,2.1c2,2.3,6.9,2.6,5.3,7.2
	c-8.2,1.5-49.3,9-66.1-0.5c-5.7-3.2-6.9-10.7-13.9-11.4c-7.8-0.8-11.9,7.2-18.8,2.8c-2.5-1.6-4.6-6.2-7.3-7.3
	c-3.2-1.5-69.6,10.6-82.4,2c-3.4-2.3-0.1-6.8,0-10.5c-8.9,5.4-24.6,0.1-17.6-12.1c-5-0.3-69,9.7-86-0.9c-4.2-2.6-5.7-5.4-10.7-1.9
	c-4.8,3.4-3.4,6.5-10.5,6.2c-4.8-0.1-8.1-3.2-12.1-3.8c-6-0.9-18.2,15.9-23.2,6c-4.6,3.7-9.1,2.5-14.3,4.4c-3.3,1.2-6.2,5.2-9.5,6.4
	c-2.8,0.9-11.8,2.1-14,0.4c-3.4-2.5-33.4,7.6-39,7.2c-9.4-0.7-22.8-3.2-27.3-13c-4,2.6-8.3,2.9-12.9,3.8c-7.3,1.6-3.7-0.5-9.4-2.9
	c-0.1,0.7-0.9,1.6-1.1,2.5c-8.6,0.5-17.8,2.4-26.9,3.2c-10.5,0.9-14.2-1.2-18.9-10.3c-5.6,4.4-24.6,8-25.2,0.9
	c-7.3-0.7-15.9,4.2-23.2,5.3c-6.5,0.9-17.5,1.6-23.3-0.9c-3.3-1.5-5.6-5.8-8.3-6.4c-3.4-0.7-28.2,2.4-30.6,1.1
	c0.5,7.2-26.6,8.1-25.6-5.6c-6.2,0.5-10.6-3.8-16.4,1.1c-5.8,4.9-6.4,11.1-15.2,11.9c-8.2,0.7-9.5-3.6-14.7-8.6
	c-6.4-6.1-74.9,23.1-88.9,1.6c-6,3.2-11.8,3.8-18,1.7c-3.4-1.2-5.8-2.9-9.8-1.9c-2.8,0.7-4.4,3.7-7.7,3.6c-4.5-0.1-4.1-4.4-7.3-5.7
	c-2.4-0.9-5.6,0.7-8.6,1.7c-20,6.2-21.7-2.7-21.6-3.4c-5.7,1.9-14.8,2.1-21.2,1.6c-26.2-12.1,23.7-6.4,35.4-25l5.6-4.6
	c3.6-8.5,22.1-11.9,20.7-12.3c2-2,6.9-4.5,6.5-8.2c-0.1-1.5-3.3-2.8-3.8-4.6c-0.7-2.4,0.4-4.5,1.2-6.4c0.7-1.6,2.8-2.4,3.6-4
	c0.9-2-0.4-4.5,1.1-6.5c2.1-3.2,6.6-4.6,9.9-2.9c0.8-4.1,3-4.5,6.5-5.7c1.6-0.5,2.3,0.5,3.7,0c1.3-0.5,2-2.6,3.2-3.3
	c7-3.8,12.6-0.7,16.4,5.3c0.3-4.8,6.6-5.4,9.8-3c0.5-2,1.5-5,2.8-6.9c0.5-0.8,2.3-1.5,2.5-2c1.1-1.7,1.2-2.4,2-4.8
	c0.8-2.3-0.7-3.3,2.5-5.8c2.3-1.7,6.6-2.7,9.4-2.7c1.1-4.8,8.1-6,11.7-4.8c5.8,2,5.8,7,6.5,12.1c1.1-2.8,3.2-4.9,6.2-5.4
	c0.5-9.8,5.7-10.1,14-9.3c-0.1-3.6,3.4-6,6.5-3.7c0.7-9.8,6.1-11,12.3-4c2.9-4.5,3.3-10.3,10.3-9c4.1,0.8,7.3,5,9.5,8.3
	c2.8-1.2,2.8-4.5,3.7-7.2c7.9-3.6,8.5,1.2,12.7,6c2-3,4.9-2.7,7.6-0.7c0.3-4-0.5-6.2,3-8.3c2.3-1.3,4.8-1.6,6.5,0.7
	c-0.5-7.7,14.8-8.3,15.8-0.7c0,0,14.2-2.8,17.1-0.3c5.4,4.8,2,9.1-0.1,13.9c5.2-1.9,11-0.9,15.1,2c4.5,3.2,6.2,9.7-0.9,11.5
	c-0.4,7.4,1.9,12.1-2.9,18.5c-4.4,6-8.6,8-15,10.2c-7,2.5-4.1,7.7-9.3,13.1c-2,2.1-4.8,4.5-7.3,5.8c-2.6,1.5-6.9,0.8-8.5,3.3
	c4.9,0.8,12.7-4.8,15.8,0.8c3.8-1.7,5.2-3.8,7.7-7c2.7,0.7,5.2,1.9,8.2,1.7c4.1-0.1,5.2-3.3,8.3-3.8c2.9-0.5,5.3,1.2,7.7,1.2
	c3.6,0,6-2,9.9-0.4c2.9-3.8,11.3-3.7,13.1,0.9c-4.8,3.6-13.1,5.4-16.6,11.3c7.2,0,13.6,7,13.1,14c6.5-1.2,13.4-4.1,20.3-1.9
	c0.9-8.2,7-11.8,14-14c-0.7-6.2,4.5-8.5,10.3-8.3c-0.9-6.5,9.1-9.5,14.2-8.3c4.8,1.2,10.9,6.2,14.2,10.2c7.9-5,19.9-5.2,28.4-0.7
	c-3.6-8.9,2.9-12.1,10.5-12.5c-3.2-6.8,3.4-9,8.3-8.3C454.6,723,474,723,479.5,730c0.5-2.4,5.8-3.8,8.2-2.3c3.2,2.1,1.7,5,1.1,8
	c0.8-2.5,3.7-2.9,6.5-2.7c-3-4.4-9.9-10.5-1.9-14.7c-2.3-4.6,0-11,4.4-13.9c-1.6-3.6,3.2-9.8,6.1-11.9c4.1-3.3,10.5-2.3,13.8-5.2
	c-3.7-5-7.4-12.1,2.8-12.1c-3.7-4.4-4.6-12.1,1.1-14.6c1.1-0.4,2,1.7,3.7,0.5c2.5-1.7,0.4-2.9,1.9-4.5c2.1-2.4,3.7-4.2,7.3-3.8
	c4-17.1,33.4-15.1,43.1-4.9c2.9-4,8-1.1,8.6,3c5.2,0.8,9.5-1.7,14.7-0.8c4.9,0.9,6,3.4,9.3,6.5l2.8-0.9c6-4.4,16-1.1,18.9,6.4
	c6-2.8,17.5-3.4,22.9,0.9c-0.3-10.7,12.3-10.5,17-3c0.3-0.7,5.6-1.6,11.8-1.5c-3.3-3.2-7.3-6-6-11.1c4.6-1.5,13.5-3.3,17.2,1.9
	c-2.3-4.8-5.2-8-6.2-13c-8.9-0.8-15.5-2.5-21.6-9.3c-19.9,13.9-91.7-37.5-42.9-71.2c-12.3-18.2,15.9-20.8,22.5-18.8
	C627.5,509.8,650.8,504.2,650.8,504.2z"/>
</svg>
